<svg width="24" height="24" fill="none" xmlns="http://www.w3.org/2000/svg"><g clip-path="url(#clip0)"><path d="M12.006 6.61c-3.407 0-6.156 2.404-6.156 5.385 0 2.982 2.749 5.386 6.156 5.386 3.407 0 6.155-2.404 6.155-5.386 0-2.98-2.748-5.385-6.155-5.385zm0 8.887c-2.202 0-4.002-1.57-4.002-3.502 0-1.93 1.795-3.501 4.002-3.501s4.002 1.57 4.002 3.502c0 1.93-1.8 3.501-4.002 3.501zm7.843-9.108c0 .699-.643 1.256-1.436 1.256-.798 0-1.436-.562-1.436-1.256s.643-1.256 1.436-1.256c.793 0 1.436.562 1.436 1.256zm4.076 1.275c-.09-1.683-.53-3.173-1.939-4.401-1.404-1.228-3.107-1.613-5.03-1.697-1.982-.099-7.924-.099-9.906 0-1.918.08-3.621.464-5.03 1.692C.611 4.486.177 5.977.08 7.66c-.112 1.734-.112 6.932 0 8.667.092 1.682.531 3.173 1.94 4.401 1.409 1.228 3.107 1.613 5.03 1.697 1.982.099 7.923.099 9.906 0 1.923-.08 3.627-.464 5.03-1.697 1.404-1.228 1.843-2.719 1.94-4.401.112-1.735.112-6.928 0-8.663zm-2.56 10.524c-.418.918-1.227 1.626-2.282 1.997-1.58.548-5.33.421-7.077.421-1.747 0-5.502.122-7.077-.422-1.05-.365-1.859-1.073-2.282-1.996-.627-1.383-.482-4.664-.482-6.192 0-1.529-.14-4.815.482-6.193.418-.918 1.227-1.626 2.282-1.997 1.58-.548 5.33-.421 7.077-.421 1.746 0 5.502-.122 7.076.421 1.05.366 1.86 1.074 2.283 1.997.626 1.383.482 4.664.482 6.192 0 1.529.144 4.815-.482 6.193z" fill="#fff"/></g><defs><clipPath id="clip0"><path fill="#fff" d="M0 0h24v24H0z"/></clipPath></defs></svg>