<svg xmlns="http://www.w3.org/2000/svg" width="59" height="20" fill="none" xmlns:v="https://vecta.io/nano"><g clip-path="url(#A)"><g fill="#191919"><path d="M0 19.568V.216h6.703a6.89 6.89 0 0 1 2.448.432 6.24 6.24 0 0 1 2.013 1.215 5.69 5.69 0 0 1 1.394 1.948c.32.74.48 1.542.47 2.35a5.69 5.69 0 0 1-1.862 4.27 6.23 6.23 0 0 1-2.013 1.215 6.89 6.89 0 0 1-2.446.432h-3.65v7.486L0 19.568zM6.784 9.162a3.37 3.37 0 0 0 1.352-.254 2.96 2.96 0 0 0 1-.689 3.07 3.07 0 0 0 .62-.972 2.89 2.89 0 0 0 .216-1.081c-.002-.77-.302-1.512-.837-2.068a3.21 3.21 0 0 0-1.076-.72 3.23 3.23 0 0 0-1.273-.238H3.054v6.026l3.73-.003zm8.62-2.838v13.243h3V6.324h-3z"/></g><path d="M18.91 2.024a1.98 1.98 0 0 1-.581 1.433 1.91 1.91 0 0 1-1.42.594V0a1.91 1.91 0 0 1 .772.148c.244.102.465.254.647.446a1.98 1.98 0 0 1 .581 1.43z" fill="#35af39"/><path d="M16.908 0v4.054c-.268.006-.535-.043-.783-.146a1.94 1.94 0 0 1-.658-.449c-.19-.187-.338-.41-.438-.658a1.97 1.97 0 0 1-.145-.777c-.004-.265.046-.53.146-.774s.25-.47.437-.656c.186-.193.4-.346.66-.448s.515-.152.783-.146z" fill="#00bafc"/><g fill="#191919"><path d="M25 12.838l-4.568-6.513h3.487l2.864 4.2h.08l2.672-4.2h3.62l-4.622 6.513 4.702 6.73h-3.563L26.8 15.243h-.08l-2.84 4.324h-3.53l4.65-6.73zm21.837 3.567a7.2 7.2 0 0 1-2.38 2.568C43.43 19.66 42.17 20 40.675 20a7.03 7.03 0 0 1-2.743-.527c-.818-.338-1.56-.84-2.176-1.473a6.74 6.74 0 0 1-1.432-2.23 7.54 7.54 0 0 1-.513-2.825 7.59 7.59 0 0 1 .486-2.716 6.81 6.81 0 0 1 1.364-2.244 6.5 6.5 0 0 1 4.878-2.094c1.026 0 1.94.17 2.744.513a5.82 5.82 0 0 1 2.041 1.433c.576.643 1.013 1.397 1.284 2.216a8.68 8.68 0 0 1 .446 2.834v.243a1.22 1.22 0 0 0-.027.243.9.9 0 0 0-.027.216H36.8c.038.575.194 1.137.46 1.65a3.86 3.86 0 0 0 .932 1.162 3.63 3.63 0 0 0 1.23.675 4.3 4.3 0 0 0 1.324.216c.864 0 1.576-.207 2.135-.62a5.15 5.15 0 0 0 1.377-1.539l2.57 1.27zm-2.785-5.108c-.048-.3-.134-.615-.257-.905a2.77 2.77 0 0 0-.621-.917 3.59 3.59 0 0 0-1.081-.716c-.44-.198-.977-.297-1.607-.297-.864 0-1.607.257-2.23.77S37.214 10.434 37 11.297h7.053zm5.27-4.973h2.834v2h.162a3.74 3.74 0 0 1 .666-.956 4.34 4.34 0 0 1 .947-.763c.35-.208.723-.38 1.1-.513a3.43 3.43 0 0 1 1.121-.201c.373-.007.745.034 1.108.122.293.076.574.2.838.337l-.865 2.73c-.212-.094-.434-.162-.662-.202a4.94 4.94 0 0 0-.878-.068c-.463-.005-.922.097-1.34.3a3.46 3.46 0 0 0-1.067.815c-.314.358-.557.773-.716 1.222a4.33 4.33 0 0 0-.257 1.494v6.927h-2.996l-.005-13.243z"/></g></g><defs><clipPath id="A"><path fill="#fff" d="M0 0h58.107v20H0z"/></clipPath></defs></svg>